HIERARCHY
ROOT Hips
{
	OFFSET 0.00000 0.00000 0.00000
	CHANNELS 6 Xposition Yposition Zposition Zrotation Yrotation Xrotation 
	JOINT LHipJoint
	{
		OFFSET 0 0 0
		CHANNELS 3 Zrotation Yrotation Xrotation
		JOINT LeftHip
		{
			OFFSET 1.53139 -1.83434 0.76626
			CHANNELS 3 Zrotation Yrotation Xrotation
			JOINT LeftKnee
			{
				OFFSET 2.56112 -7.03663 0.00000
				CHANNELS 3 Zrotation Yrotation Xrotation
				JOINT LeftAnkle
				{
					OFFSET 2.59983 -7.14299 0.00000
					CHANNELS 3 Zrotation Yrotation Xrotation
					JOINT LeftToe
					{
						OFFSET 0.13742 -0.37757 2.00054
						CHANNELS 3 Zrotation Yrotation Xrotation
						End Site
						{
							OFFSET 0.00000 -0.00000 1.02897
						}
					}
				}
			}
		}
	}
	JOINT RHipJoint
	{
		OFFSET 0 0 0
		CHANNELS 3 Zrotation Yrotation Xrotation
		JOINT RightHip
		{
			OFFSET -1.40122 -1.83435 0.76627
			CHANNELS 3 Zrotation Yrotation Xrotation
			JOINT RightKnee
			{
				OFFSET -2.54052 -6.98003 0.00000
				CHANNELS 3 Zrotation Yrotation Xrotation
				JOINT RightAnkle
				{
					OFFSET -2.63179 -7.23079 0.00000
					CHANNELS 3 Zrotation Yrotation Xrotation
					JOINT RightToe
					{
						OFFSET -0.24131 -0.66299 2.03908
						CHANNELS 3 Zrotation Yrotation Xrotation
						End Site
						{
							OFFSET -0.00000 -0.00000 1.07391
						}
					}
				}
			}
		}
	}
	JOINT lowerback
	{
		OFFSET 0 0 0
		CHANNELS 3 Zrotation Yrotation Xrotation
		JOINT Chest
		{
			OFFSET 0.01174 2.10302 -0.29778
			CHANNELS 3 Zrotation Yrotation Xrotation
			JOINT Chest2
			{
				OFFSET 0.00772 2.13227 -0.01247
				CHANNELS 3 Zrotation Yrotation Xrotation
				JOINT lowerneck
				{
					OFFSET 0 0 0
					CHANNELS 3 Zrotation Yrotation Xrotation
					JOINT Neck
					{
						OFFSET -0.09219 1.60848 0.31481
						CHANNELS 3 Zrotation Yrotation Xrotation
						JOINT Head
						{
							OFFSET 0.13974 1.65456 -0.31134
							CHANNELS 3 Zrotation Yrotation Xrotation
							End Site
							{
								OFFSET 0.04742 1.69515 -0.14578
							}
						}
					}
				}
				JOINT LeftCollar
				{
					OFFSET 0 0 0
					CHANNELS 3 Zrotation Yrotation Xrotation
					JOINT LeftShoulder
					{
						OFFSET 3.24909 1.02882 -0.23993
CHANNELS 3 Zrotation Xrotation Yrotation
						JOINT LeftElbow
						{
OFFSET 0 -5.329550 -0.000000
CHANNELS 3 Zrotation Xrotation Yrotation
							JOINT LeftWrist
							{
OFFSET 0 -3.692320 -0.000000
CHANNELS 3 Zrotation Xrotation Yrotation
								JOINT lhand
								{
									OFFSET 0 0 0
CHANNELS 3 Zrotation Xrotation Yrotation
									JOINT LFingers
									{
OFFSET 0 -0.536600 -0.000000
CHANNELS 3 Zrotation Xrotation Yrotation
										End Site
										{
OFFSET 0 -0.432620 -0.000000
										}
									}
								}
								JOINT LThumb
								{
OFFSET 0 0.000000 0.000000
CHANNELS 3 Zrotation Xrotation Yrotation
									End Site
									{
OFFSET 0 -0.439220 0.439220
									}
								}
							}
						}
					}
				}
				JOINT RightCollar
				{
					OFFSET 0 0 0
					CHANNELS 3 Zrotation Yrotation Xrotation
					JOINT RightShoulder
					{
						OFFSET -3.21387 0.93002 -0.34594
CHANNELS 3 Zrotation Xrotation Yrotation
						JOINT RightElbow
						{
OFFSET 0 -5.234310 0.000000
CHANNELS 3 Zrotation Xrotation Yrotation
							JOINT RightWrist
							{
OFFSET 0 -3.553010 -0.000000
CHANNELS 3 Zrotation Xrotation Yrotation
								JOINT rhand
								{
									OFFSET 0 0 0
CHANNELS 3 Zrotation Xrotation Yrotation
									JOINT RFingers
									{
OFFSET 0 -0.772520 -0.000000
CHANNELS 3 Zrotation Xrotation Yrotation
										End Site
										{
OFFSET 0 -0.622830 -0.000000
										}
									}
								}
								JOINT RThumb
								{
OFFSET 0 0.000000 0.000000
CHANNELS 3 Zrotation Xrotation Yrotation
									End Site
									{
OFFSET 0 -0.632340 0.632340
									}
								}
							}
						}
					}
				}
			}
		}
	}
}
MOTION
Frames: 6
Frame Time: 0.008333333333333333
-5.867423 17.957899 9.442886 -10.775641 60.689988 -10.857210 0.000000 0.000000 0.000000 -14.531603 -8.573805 -21.381192 2.491175 9.812446 28.379485 0.088104 0.112657 -5.666960 0.010014 -0.619375 -1.702040 0.000000 0.000000 0.000000 25.983583 -5.061081 2.778999 -1.020781 -6.427197 18.029106 -0.573986 1.391741 -13.902224 -0.030132 1.110711 -3.053656 2.911905 2.775818 11.780265 1.000426 4.159083 1.000345 -1.260080 2.003719 -5.415904 -12.403519 -5.652621 -20.655698 7.855516 -6.000534 29.492111 4.230013 -2.811141 14.217631 0.000000 0.000000 0.000000 2.737584 6.763653 -10.986196 16.305530 -25.933077 3.778555 21.636508 16.064591 -26.484887 0.000000 0.000000 0.000000 -7.125000 0.000000 0.000000 -9.398485 57.924695 2.990126 0.000000 0.000000 0.000000 -5.905804 -3.094148 14.087716 -15.278262 -24.532161 -3.340755 -15.811337 5.828692 -7.832069 0.000000 0.000000 0.000000 7.125000 0.000000 0.000000 8.002946 21.872080 4.488229
-5.800469 17.954097 9.478457 -10.771324 60.902965 -10.713829 0.000000 0.000000 0.000000 -14.548809 -8.741416 -21.279375 2.214724 9.298338 26.734055 0.082111 0.732770 -5.734881 0.003441 -0.369925 -1.016519 0.000000 0.000000 0.000000 25.990349 -4.938644 3.066598 -0.998742 -6.359792 17.831917 -0.586359 1.111424 -14.126671 -0.041796 1.318532 -3.625567 2.903914 2.799855 11.652994 0.971879 4.183248 0.978435 -1.282441 2.016156 -5.365511 -12.392758 -5.655263 -20.746495 7.871949 -6.002403 29.512732 4.235040 -2.806824 14.246694 0.000000 0.000000 0.000000 2.721151 6.876360 -11.241188 16.342390 -25.982632 3.794665 21.993123 15.605773 -26.447060 0.000000 0.000000 0.000000 -7.125000 0.000000 0.000000 -8.994055 57.965486 2.868977 0.000000 0.000000 0.000000 -6.054211 -3.238044 14.258549 -15.409785 -24.713884 -3.395465 -16.029211 5.456675 -7.934208 0.000000 0.000000 0.000000 7.125000 0.000000 0.000000 7.842037 21.757440 4.417086
-5.733026 17.948706 9.511218 -10.922327 61.113253 -10.771168 0.000000 0.000000 0.000000 -14.491470 -8.897905 -21.106803 1.964241 8.780197 25.117466 0.072818 1.296364 -5.765713 0.001389 -0.068599 -0.188570 0.000000 0.000000 0.000000 26.044592 -4.987353 3.352731 -0.978292 -6.295992 17.645788 -0.598182 0.934430 -14.320322 -0.073745 1.723162 -4.741774 3.012750 2.778737 11.618721 0.941132 4.166536 0.953654 -1.371342 2.004763 -5.363144 -12.335559 -5.612323 -20.746251 7.916243 -5.973660 29.463635 4.247520 -2.781121 14.219971 0.000000 0.000000 0.000000 2.720789 7.019985 -11.276519 16.368985 -26.018378 3.806376 21.911821 15.394967 -26.512190 0.000000 0.000000 0.000000 -7.125000 0.000000 0.000000 -9.114184 58.013671 2.918486 0.000000 0.000000 0.000000 -6.129051 -3.380291 14.367240 -15.527439 -24.875627 -3.444860 -16.163315 5.205763 -7.935589 0.000000 0.000000 0.000000 7.125000 0.000000 0.000000 7.744858 21.749850 4.362747
-5.664867 17.945885 9.542394 -11.010299 61.307788 -10.759425 0.000000 0.000000 0.000000 -14.465766 -9.054452 -20.949394 1.728103 8.266612 23.531724 0.062860 1.876435 -5.835488 0.000939 0.172496 0.473881 0.000000 0.000000 0.000000 26.049628 -5.118159 3.603407 -0.956243 -6.226617 17.443533 -0.600370 0.804436 -14.383761 -0.089358 1.926033 -5.301343 3.115403 2.768434 11.576860 0.891874 4.161792 0.925446 -1.477595 1.999143 -5.358626 -12.267138 -5.578361 -20.749154 7.964615 -5.963346 29.411521 4.256092 -2.761477 14.194720 0.000000 0.000000 0.000000 2.717473 7.154928 -11.242631 16.386641 -26.042105 3.814143 21.742835 15.251737 -26.526727 0.000000 0.000000 0.000000 -7.125000 0.000000 0.000000 -9.304076 57.990893 2.974434 0.000000 0.000000 0.000000 -6.165542 -3.530672 14.388374 -15.643926 -25.035384 -3.493963 -16.197720 5.056384 -7.897289 0.000000 0.000000 0.000000 7.125000 0.000000 0.000000 7.721020 21.787650 4.342301
-5.595658 17.947110 9.571392 -10.989355 61.478556 -10.625775 0.000000 0.000000 0.000000 -14.494443 -9.212009 -20.820963 1.511646 7.760301 21.990559 0.052163 2.486302 -5.967656 0.002550 0.317552 0.872447 0.000000 0.000000 0.000000 25.975779 -5.359747 3.800209 -0.931626 -6.148450 17.215799 -0.587933 0.737417 -14.251464 -0.078403 1.805271 -4.967926 3.198918 2.778357 11.515706 0.814610 4.178676 0.892259 -1.604737 2.004299 -5.346833 -12.185491 -5.561864 -20.764426 8.016876 -5.983645 29.360613 4.258089 -2.752842 14.176355 0.000000 0.000000 0.000000 2.708322 7.274079 -11.121611 16.391539 -26.048678 3.816269 21.476759 15.190776 -26.455648 0.000000 0.000000 0.000000 -7.125000 0.000000 0.000000 -9.556555 57.859434 3.025987 0.000000 0.000000 0.000000 -6.149754 -3.693578 14.281338 -15.759790 -25.193779 -3.543067 -16.087269 5.051551 -7.806943 0.000000 0.000000 0.000000 7.125000 0.000000 0.000000 7.803569 21.885665 4.372072
-5.524544 17.948334 9.600010 -11.071872 61.616125 -10.531092 0.000000 0.000000 0.000000 -14.452095 -9.414956 -20.738848 1.320823 7.267161 20.514486 0.040159 3.099870 -6.167963 0.004324 0.416892 1.145511 0.000000 0.000000 0.000000 25.958640 -5.572001 3.948955 -0.907826 -6.071263 16.991385 -0.574843 0.679488 -14.105507 -0.081707 1.842774 -5.071481 3.294679 2.793996 11.396644 0.787797 4.205736 0.839316 -1.684693 2.014733 -5.326006 -12.194352 -5.556524 -20.827428 8.057273 -5.978092 29.360319 4.277285 -2.744697 14.190970 0.000000 0.000000 0.000000 2.602188 7.380005 -10.829047 16.373524 -26.024502 3.808382 20.995273 15.121270 -26.387509 0.000000 0.000000 0.000000 -7.125000 0.000000 0.000000 -10.039955 57.684381 3.137460 0.000000 0.000000 0.000000 -6.217670 -3.832265 14.304484 -15.874076 -25.349399 -3.591953 -16.023295 4.865922 -7.796655 0.000000 0.000000 0.000000 7.125000 0.000000 0.000000 7.850252 21.899158 4.396293
